<svg width="218" height="217" viewBox="0 0 218 217" fill="none" xmlns="http://www.w3.org/2000/svg">
<g clip-path="url(#clip0_103_2)">
<path d="M197.18 171.335C194.032 171.5 190.884 171.065 187.737 171.529C160.16 176.154 135.728 167.725 113.092 153.892C105.297 149.132 98.2508 141.82 93.1529 134.05C78.309 112.087 69.1599 87.6987 66.605 61.1816C65.8535 53.5411 66.6009 45.5939 68.5472 37.6411C69.597 39.8844 70.7966 42.2769 71.6966 44.6708C74.3962 51.5528 76.946 58.5854 80.0953 65.3154C81.4449 68.1568 83.9936 70.6929 86.5421 72.9293C87.4416 73.8244 90.1395 73.8118 91.1884 73.0575C92.2374 72.3032 92.9861 69.7517 92.3864 68.8552C83.5391 52.2596 79.9371 33.691 74.8364 15.729C73.0362 9.44237 69.8882 7.50857 64.0435 9.78405C49.6565 15.5466 37.0689 24.2985 26.4303 35.5892C26.1307 35.8904 26.2808 36.9388 26.2813 38.7374C38.423 44.2264 45.3143 31.904 57.3038 28.5507C56.5552 31.4019 55.8064 33.6537 55.5071 35.7534C51.1717 77.8904 63.9213 115.152 88.5104 148.61C92.1089 153.69 97.206 158.162 102.453 161.885C121.791 175.434 143.376 183.127 167.057 183.616C174.701 183.731 182.494 181.596 189.987 179.762C192.985 179.149 195.532 176.589 198.08 174.928C197.78 173.731 197.48 172.533 197.18 171.335Z" fill="#0D1927"/>
</g>
<defs>
<clipPath id="clip0_103_2">
<rect width="220" height="87" fill="white" transform="matrix(-0.708846 -0.705363 -0.705363 0.708846 217.656 155.255)"/>
</clipPath>
</defs>
</svg>
